<?xml version="1.0" encoding="UTF-8"?>
<svg version="1.1" xmlns="http://www.w3.org/2000/svg" width="100" height="100">
<path d="M0 0 C4.96475588 2.39043802 6.9303826 4.94093524 9 10 C9.721875 9.773125 10.44375 9.54625 11.1875 9.3125 C14.81695175 8.90922758 16.13061469 9.82857328 19 12 C21 15 21 15 21 19 C21.7425 19.0825 22.485 19.165 23.25 19.25 C26.74780317 20.20394632 27.96194385 20.98065756 30 24 C30.7497674 28.119934 30.96165513 31.50159903 28.65014648 35.10327148 C24.43247367 38.12188964 20.12810363 37.59065128 15.06640625 37.56640625 C13.99631821 37.57260483 12.92623016 37.57880341 11.82371521 37.58518982 C9.56176666 37.59229039 7.29976587 37.58910991 5.0378418 37.57641602 C1.57828432 37.5625632 -1.87856216 37.59660493 -5.33789062 37.63476562 C-7.536459 37.63571694 -9.73503075 37.63385734 -11.93359375 37.62890625 C-12.96705429 37.64216446 -14.00051483 37.65542267 -15.06529236 37.66908264 C-22.25346955 37.57598811 -22.25346955 37.57598811 -26.12915039 34.58569336 C-29.39673938 30.0695724 -29.6643727 26.48582026 -29 21 C-26.87933541 17.01315058 -25.53596247 16.18758686 -21.25 14.6875 C-20.1775 14.460625 -19.105 14.23375 -18 14 C-17.814375 12.80375 -17.62875 11.6075 -17.4375 10.375 C-16.34142027 6.09724439 -14.5581611 3.73575409 -11.0625 1.0703125 C-7.36731933 -0.84726232 -4.0214091 -0.84969664 0 0 Z " fill="#F2F2F1" transform="translate(50,32)"/>
</svg>
