<?xml version="1.0" encoding="UTF-8"?>
<svg version="1.1" xmlns="http://www.w3.org/2000/svg" width="100" height="100">
<path d="M0 0 C4.97026647 0.8678243 6.45524976 2.12233904 9.9375 5.6875 C10.5975 6.6775 11.2575 7.6675 11.9375 8.6875 C12.906875 8.6875 13.87625 8.6875 14.875 8.6875 C17.9375 8.6875 17.9375 8.6875 19.8125 9.875 C21.28531139 12.24786279 21.15973194 13.94663944 20.9375 16.6875 C21.700625 16.790625 22.46375 16.89375 23.25 17 C27.3147242 18.03981317 27.3147242 18.03981317 28.9375 20.6875 C29.57868738 25.73685065 29.57868738 25.73685065 28.9375 28.6875 C26.6875 31.1875 26.6875 31.1875 23.9375 32.6875 C22.6175 32.6875 21.2975 32.6875 19.9375 32.6875 C19.855 33.76 19.7725 34.8325 19.6875 35.9375 C18.82745628 40.2377186 18.51645088 41.24265134 14.9375 43.6875 C11.29747191 44.30535957 7.68893314 44.27155716 4.00390625 44.25390625 C2.93381821 44.26010483 1.86373016 44.26630341 0.76121521 44.27268982 C-1.50073334 44.27979039 -3.76273413 44.27660991 -6.0246582 44.26391602 C-9.48421568 44.2500632 -12.94106216 44.28410493 -16.40039062 44.32226562 C-18.598959 44.32321694 -20.79753075 44.32135734 -22.99609375 44.31640625 C-24.02955429 44.32966446 -25.06301483 44.34292267 -26.12779236 44.35658264 C-33.31596955 44.26348811 -33.31596955 44.26348811 -37.19165039 41.27319336 C-40.21823292 37.09016641 -40.59141912 33.78079522 -40.0625 28.6875 C-38.58544491 24.99486229 -37.44368041 23.91309657 -34 21.875 C-31.0625 20.6875 -31.0625 20.6875 -29.0625 20.6875 C-28.91554688 20.09582031 -28.76859375 19.50414063 -28.6171875 18.89453125 C-26.94075636 12.9884836 -25.47114323 9.79246185 -20.0625 6.6875 C-17.77659277 6.59589716 -15.57038958 6.75374419 -13.2890625 6.91015625 C-10.43734668 6.62498467 -9.51906797 5.67429976 -7.5 3.6875 C-5.0158741 1.26662731 -3.50755557 0.19264983 0 0 Z " fill="#F1F1F0" transform="translate(56.0625,28.3125)"/>
<path d="M0 0 C3.49794376 2.00211254 5.76779717 4.65169576 8 8 C8.969375 8 9.93875 8 10.9375 8 C14 8 14 8 15.875 9.1875 C17.34781139 11.56036279 17.22223194 13.25913944 17 16 C17.763125 16.103125 18.52625 16.20625 19.3125 16.3125 C23.3772242 17.35231317 23.3772242 17.35231317 25 20 C25.39274738 23.09288558 25.63577985 25.04689172 25 28 C22.5868981 30.75783074 21.00302254 31.77982432 17.4375 32.5625 C15 32 15 32 13.0625 29.5625 C11.1817857 26.69801588 11.1817857 26.69801588 7.75 26.1875 C6.38875 26.0946875 6.38875 26.0946875 5 26 C4.67 23.36 4.34 20.72 4 18 C2.54263913 17.80508548 1.08405407 17.61930642 -0.375 17.4375 C-1.18710937 17.33308594 -1.99921875 17.22867188 -2.8359375 17.12109375 C-5.04899186 16.81762672 -5.04899186 16.81762672 -7 18 C-7.4125 16.9275 -7.825 15.855 -8.25 14.75 C-9.63739149 11.47734926 -11.27999908 9.34482838 -14 7 C-11.34822331 0.59153965 -6.8236256 -1.43033691 0 0 Z " fill="#474749" transform="translate(60,29)"/>
</svg>
