<?xml version="1.0" encoding="UTF-8"?>
<svg version="1.1" xmlns="http://www.w3.org/2000/svg" width="100" height="100">
<path d="M0 0 C2.5 1.8125 2.5 1.8125 4 4 C4 4.99 4 5.98 4 7 C4.7425 6.7525 5.485 6.505 6.25 6.25 C9 6 9 6 11.3125 7.75 C13 10 13 10 13 13 C13.61875 13.12375 14.2375 13.2475 14.875 13.375 C17 14 17 14 19 16 C19.375 19.4375 19.375 19.4375 19 23 C17.25 24.9375 17.25 24.9375 15 26 C13.68 26 12.36 26 11 26 C11.0825 26.7425 11.165 27.485 11.25 28.25 C11 31 11 31 9.35546875 33.13598633 C6.40320744 35.47227521 4.79537632 35.52202077 1.0625 35.57421875 C-0.65066406 35.61579102 -0.65066406 35.61579102 -2.3984375 35.65820312 C-3.58695313 35.66787109 -4.77546875 35.67753906 -6 35.6875 C-8.35423078 35.72963103 -10.70840539 35.7750644 -13.0625 35.82421875 C-14.10535156 35.83541748 -15.14820313 35.84661621 -16.22265625 35.8581543 C-18.64725886 35.98198465 -20.68479093 36.30495147 -23 37 C-23 36.34 -23 35.68 -23 35 C-24.794375 35.1546875 -24.794375 35.1546875 -26.625 35.3125 C-29.85023451 35.29528345 -31.86086643 34.88780129 -34.5 33 C-37.28524825 29.6577021 -37.85889291 28.15873456 -37.5234375 23.93359375 C-36.60973549 20.55835126 -34.75321901 19.01902728 -32 17 C-29.1875 16.1875 -29.1875 16.1875 -27 16 C-27.103125 15.113125 -27.20625 14.22625 -27.3125 13.3125 C-27 10 -27 10 -24.9375 7.1875 C-21.48012049 4.61285568 -19.2723437 4.15823495 -15 4 C-14.01 4.33 -13.02 4.66 -12 5 C-11.71125 4.360625 -11.4225 3.72125 -11.125 3.0625 C-8.82777996 -1.14907006 -4.29934514 -0.62875798 0 0 Z " fill="#EEEEEE" transform="translate(59,25)"/>
<path d="M0 0 C3.9375 0.5625 3.9375 0.5625 6.4375 2.375 C7.9375 4.5625 7.9375 4.5625 7.9375 7.5625 C8.68 7.315 9.4225 7.0675 10.1875 6.8125 C12.9375 6.5625 12.9375 6.5625 15.25 8.3125 C16.9375 10.5625 16.9375 10.5625 16.9375 13.5625 C17.55625 13.68625 18.175 13.81 18.8125 13.9375 C20.9375 14.5625 20.9375 14.5625 22.9375 16.5625 C23.3125 20 23.3125 20 22.9375 23.5625 C21.25 25.5625 21.25 25.5625 18.9375 26.5625 C15.04273354 26.37251139 13.54893547 25.28747614 10.9375 22.5625 C10.256875 22.459375 9.57625 22.35625 8.875 22.25 C8.235625 22.023125 7.59625 21.79625 6.9375 21.5625 C5.6875 18.5 5.6875 18.5 4.9375 15.5625 C3.844375 15.48 2.75125 15.3975 1.625 15.3125 C-2.0625 14.5625 -2.0625 14.5625 -3.75 12.8125 C-4.183125 12.07 -4.61625 11.3275 -5.0625 10.5625 C-6.39119858 8.89213607 -7.72354368 7.22465268 -9.0625 5.5625 C-6.32379793 2.13912242 -4.41315885 0.18972459 0 0 Z " fill="#464648" transform="translate(55.0625,24.4375)"/>
<path d="M0 0 C1.32 0.33 2.64 0.66 4 1 C3.34 2.98 2.68 4.96 2 7 C0.68 6.67 -0.64 6.34 -2 6 C-1.34 4.02 -0.68 2.04 0 0 Z " fill="#48484A" transform="translate(34,64)"/>
<path d="M0 0 C0.99 0.33 1.98 0.66 3 1 C2.625 3.4375 2.625 3.4375 2 6 C1.01 6.495 1.01 6.495 0 7 C-0.66 6.67 -1.32 6.34 -2 6 C-1.125 1.125 -1.125 1.125 0 0 Z " fill="#48484A" transform="translate(43,63)"/>
<path d="M0 0 C1.32 0 2.64 0 4 0 C3.67 1.65 3.34 3.3 3 5 C1.68 5 0.36 5 -1 5 C-0.67 3.35 -0.34 1.7 0 0 Z " fill="#48484A" transform="translate(48,70)"/>
<path d="M0 0 C1.32 0.66 2.64 1.32 4 2 C3.01 3.485 3.01 3.485 2 5 C1.01 4.67 0.02 4.34 -1 4 C-0.67 2.68 -0.34 1.36 0 0 Z " fill="#48484A" transform="translate(40,70)"/>
<path d="M0 0 C0.99 0.33 1.98 0.66 3 1 C2.67 2.32 2.34 3.64 2 5 C1.01 5 0.02 5 -1 5 C-0.67 3.35 -0.34 1.7 0 0 Z " fill="#424244" transform="translate(52,61)"/>
</svg>
