<?xml version="1.0" encoding="UTF-8"?>
<svg version="1.1" xmlns="http://www.w3.org/2000/svg" width="100" height="100">
<path d="M0 0 C3.67983521 0.19625788 4.45171863 0.58677725 7.5 3 C9.5 5.625 9.5 5.625 10.5 7.625 C12.170625 7.810625 12.170625 7.810625 13.875 8 C17.5 8.625 17.5 8.625 19.4375 10.5 C20.5 12.625 20.5 12.625 20.5 15.625 C21.28375 15.91375 22.0675 16.2025 22.875 16.5 C25.5 17.625 25.5 17.625 27.5 19.625 C27.77912647 22.55582793 27.97226924 24.77972359 27.5 27.625 C24.95253236 30.54987026 22.26562908 31.10199596 18.5 31.625 C18.4175 32.5325 18.335 33.44 18.25 34.375 C17.3962746 38.07447671 16.43346994 39.29547975 13.5 41.625 C10.3815675 42.6644775 8.22524414 42.73994838 4.95703125 42.72265625 C3.88388672 42.71943359 2.81074219 42.71621094 1.70507812 42.71289062 C0.58552734 42.70451172 -0.53402344 42.69613281 -1.6875 42.6875 C-2.81865234 42.68298828 -3.94980469 42.67847656 -5.11523438 42.67382812 C-7.91020927 42.66203498 -10.7050782 42.6455765 -13.5 42.625 C-13.79583984 43.24084961 -14.09167969 43.85669922 -14.39648438 44.49121094 C-15.66267215 46.93954748 -17.18754891 48.80143308 -19 50.875 C-19.91265625 51.93460938 -19.91265625 51.93460938 -20.84375 53.015625 C-22.5 54.625 -22.5 54.625 -24.5 54.625 C-23.3905928 51.13829166 -22.23662334 47.85015763 -20.5 44.625 C-21.82 44.625 -23.14 44.625 -24.5 44.625 C-24.5 43.965 -24.5 43.305 -24.5 42.625 C-25.716875 42.5425 -26.93375 42.46 -28.1875 42.375 C-32.29506915 41.87247824 -34.53023215 40.59476785 -37.5 37.625 C-39.23542446 34.15415109 -38.95959143 30.4199121 -38.5 26.625 C-36.37933541 22.63815058 -35.03596247 21.81258686 -30.75 20.3125 C-29.6775 20.085625 -28.605 19.85875 -27.5 19.625 C-27.4071875 18.0471875 -27.4071875 18.0471875 -27.3125 16.4375 C-26.34575542 11.90123698 -25.08833167 10.47935474 -21.5 7.625 C-18.31908147 5.86712397 -16.67282111 5.61574173 -13 5.8125 C-9.32845645 6.01777865 -9.32845645 6.01777865 -7.125 3.125 C-4.29690748 0.43157855 -3.70617786 0.18347415 0 0 Z " fill="#F1F1F0" transform="translate(55.5,22.375)"/>
<path d="M0 0 C2.75569447 2.18159145 4.43588747 3.87177494 6 7 C7.11375 7.12375 8.2275 7.2475 9.375 7.375 C13 8 13 8 14.9375 9.875 C16 12 16 12 16 15 C16.78375 15.28875 17.5675 15.5775 18.375 15.875 C21 17 21 17 23 19 C23.68196721 26.16065574 23.68196721 26.16065574 21.375 29 C18.296549 30.29618989 16.31123632 30.48288863 13 30 C11.64567325 28.68799596 10.31266518 27.35368596 9 26 C5.85518209 25.19684346 5.85518209 25.19684346 3 25 C2.87625 23.88625 2.7525 22.7725 2.625 21.625 C2.3534187 17.96896323 2.3534187 17.96896323 0 16 C-2.68839385 15.73008094 -5.29141936 15.91262643 -8 16 C-8.433125 15.071875 -8.86625 14.14375 -9.3125 13.1875 C-10.72038627 10.52815927 -11.76123556 8.91894095 -14 7 C-11.54690741 -0.17057835 -7.06941759 -1.25265119 0 0 Z " fill="#474749" transform="translate(60,23)"/>
<path d="M0 0 C2.31 0 4.62 0 7 0 C5.87548273 2.9719385 4.77706209 5.33440687 3 8 C4.32 8 5.64 8 7 8 C5.58581617 12.26560884 3.51748869 15.0059986 0.5 18.3125 C-0.2940625 19.19550781 -1.088125 20.07851562 -1.90625 20.98828125 C-4 23 -4 23 -6 23 C-4.8905928 19.51329166 -3.73662334 16.22515763 -2 13 C-3.32 13 -4.64 13 -6 13 C-4.31326082 8.50202887 -2.18326108 4.27113698 0 0 Z " fill="#EC6E4C" transform="translate(37,54)"/>
</svg>
