<?xml version="1.0" encoding="UTF-8"?>
<svg version="1.1" xmlns="http://www.w3.org/2000/svg" width="100" height="100">
<path d="M0 0 C1.32 0 2.64 0 4 0 C4.33 1.32 4.66 2.64 5 4 C6.32 3.34 7.64 2.68 9 2 C9.75 3.75 9.75 3.75 10 6 C8.68870078 7.35500919 7.35308313 8.68671343 6 10 C5.20318682 12.64184541 5.20318682 12.64184541 5 15 C8.11596912 14.33372488 8.11596912 14.33372488 9.16796875 11.93359375 C9.67263672 10.69802734 9.67263672 10.69802734 10.1875 9.4375 C10.53167969 8.61121094 10.87585938 7.78492188 11.23046875 6.93359375 C11.48441406 6.29550781 11.73835938 5.65742187 12 5 C12.99 5 13.98 5 15 5 C15.495 7.475 15.495 7.475 16 10 C17.32 9.67 18.64 9.34 20 9 C20 11 20 13 20 15 C20.495 17.475 20.495 17.475 21 20 C17.37 19.67 13.74 19.34 10 19 C10 19.99 10 20.98 10 22 C13.63 21.67 17.26 21.34 21 21 C20.505 23.475 20.505 23.475 20 26 C20 26.66 20 27.32 20 28 C20 29.32 20 30.64 20 32 C18.35 31.67 16.7 31.34 15 31 C15 32.65 15 34.3 15 36 C13.09765625 35.75 13.09765625 35.75 11 35 C10.05859375 33.1875 10.05859375 33.1875 9.4375 31 C8.87175061 28.84103663 8.87175061 28.84103663 8 27 C7.01 26.67 6.02 26.34 5 26 C6.12673954 30.19199036 6.12673954 30.19199036 8.625 33.625 C9.07875 34.07875 9.5325 34.5325 10 35 C10 36.32 10 37.64 10 39 C9.0409375 38.7215625 9.0409375 38.7215625 8.0625 38.4375 C7.381875 38.293125 6.70125 38.14875 6 38 C4.84188612 39.05270463 4.84188612 39.05270463 4 41 C2.68 41 1.36 41 0 41 C-0.33 39.68 -0.66 38.36 -1 37 C-1.33 37.66 -1.66 38.32 -2 39 C-3.32 38.67 -4.64 38.34 -6 38 C-5.45032426 34.15226983 -3.67967752 32.67967752 -1 30 C-1 29.01 -1 28.02 -1 27 C-1.99 27 -2.98 27 -4 27 C-4.99 29.97 -5.98 32.94 -7 36 C-8.32 36 -9.64 36 -11 36 C-11.33 34.68 -11.66 33.36 -12 32 C-13.65 31.67 -15.3 31.34 -17 31 C-16.34 29.68 -15.68 28.36 -15 27 C-15.66 26.34 -16.32 25.68 -17 25 C-16.67 23.68 -16.34 22.36 -16 21 C-12.7 21.33 -9.4 21.66 -6 22 C-6 21.01 -6 20.02 -6 19 C-9.63 19.33 -13.26 19.66 -17 20 C-16.67 18.35 -16.34 16.7 -16 15 C-15.8509288 12.9254644 -15.8509288 12.9254644 -17 11 C-16.67 10.34 -16.34 9.68 -16 9 C-14.35 9.33 -12.7 9.66 -11 10 C-10.67 8.35 -10.34 6.7 -10 5 C-7 6 -7 6 -6.05078125 7.84765625 C-5.68533203 8.94400391 -5.68533203 8.94400391 -5.3125 10.0625 C-4.93544922 11.16271484 -4.93544922 11.16271484 -4.55078125 12.28515625 C-4.36902344 12.85105469 -4.18726563 13.41695312 -4 14 C-3.01 14 -2.02 14 -1 14 C-1.42023751 11.05833742 -1.90660282 10.08790323 -4.125 8 C-4.74375 7.34 -5.3625 6.68 -6 6 C-5.75 3.75 -5.75 3.75 -5 2 C-3.68 2.66 -2.36 3.32 -1 4 C-0.67 2.68 -0.34 1.36 0 0 Z M1 18 C0.67 19.32 0.34 20.64 0 22 C1.32 22 2.64 22 4 22 C3.67 20.68 3.34 19.36 3 18 C2.34 18 1.68 18 1 18 Z " fill="#48484A" transform="translate(48,30)"/>
</svg>
